HIERARCHY
ROOT hip
{
  OFFSET 0 0 0
  CHANNELS 6 Xposition Yposition Zposition Zrotation Yrotation Xrotation
  JOINT abdomen
  {
    OFFSET 0 20.6881 -0.73152
    CHANNELS 3 Zrotation Xrotation Yrotation
    JOINT chest
    {
      OFFSET 0 11.7043 -0.48768
      CHANNELS 3 Zrotation Xrotation Yrotation
      JOINT neck
      {
        OFFSET 0 22.1894 -2.19456
        CHANNELS 3 Zrotation Xrotation Yrotation
        JOINT head
        {
          OFFSET -0.24384 7.07133 1.2192
          CHANNELS 3 Zrotation Xrotation Yrotation
          JOINT leftEye
          {
            OFFSET 4.14528 8.04674 8.04672
            CHANNELS 3 Zrotation Xrotation Yrotation
            End Site
            {
              OFFSET 1 0 0
            }
          }
          JOINT rightEye
          {
            OFFSET -3.6576 8.04674 8.04672
            CHANNELS 3 Zrotation Xrotation Yrotation
            End Site
            {
              OFFSET 1 0 0
            }
          }
        }
      }
      JOINT rCollar
      {
        OFFSET -2.68224 19.2634 -4.8768
        CHANNELS 3 Zrotation Xrotation Yrotation
        JOINT rShldr
        {
          OFFSET -8.77824 -1.95073 1.46304
          CHANNELS 3 Zrotation Xrotation Yrotation
          JOINT rForeArm
          {
            OFFSET -28.1742 -1.7115 0.48768
            CHANNELS 3 Zrotation Xrotation Yrotation
            JOINT rHand
            {
              OFFSET -22.5879 0.773209 7.07136
              CHANNELS 3 Zrotation Xrotation Yrotation
              JOINT rThumb1
              {
                OFFSET -1.2192 -0.487915 3.41376
                CHANNELS 3 Zrotation Xrotation Yrotation
                JOINT rThumb2
                {
                  OFFSET -3.37035 -0.52449 3.41376
                  CHANNELS 3 Zrotation Xrotation Yrotation
                  End Site
                  {
                    OFFSET -1.78271 -1.18214 1.43049
                  }
                }
              }
              JOINT rIndex1
              {
                OFFSET -7.75947 0.938293 5.60832
                CHANNELS 3 Zrotation Xrotation Yrotation
                JOINT rIndex2
                {
                  OFFSET -2.54057 -0.884171 1.56538
                  CHANNELS 3 Zrotation Xrotation Yrotation
                  End Site
                  {
                    OFFSET -1.62519 -0.234802 1.16502
                  }
                }
              }
              JOINT rMid1
              {
                OFFSET -8.24714 1.18213 3.41376
                CHANNELS 3 Zrotation Xrotation Yrotation
                JOINT rMid2
                {
                  OFFSET -3.10165 -0.590103 1.0647
                  CHANNELS 3 Zrotation Xrotation Yrotation
                  End Site
                  {
                    OFFSET -2.48547 -0.328903 0.83742
                  }
                }
              }
              JOINT rRing1
              {
                OFFSET -8.82822 0.546677 1.51678
                CHANNELS 3 Zrotation Xrotation Yrotation
                JOINT rRing2
                {
                  OFFSET -2.60934 -0.819778 -0.0198488
                  CHANNELS 3 Zrotation Xrotation Yrotation
                  End Site
                  {
                    OFFSET -2.33842 -0.294052 0.168128
                  }
                }
              }
              JOINT rPinky1
              {
                OFFSET -8.27202 -0.0477905 -0.4584
                CHANNELS 3 Zrotation Xrotation Yrotation
                JOINT rPinky2
                {
                  OFFSET -1.82734 -0.647385 -0.700984
                  CHANNELS 3 Zrotation Xrotation Yrotation
                  End Site
                  {
                    OFFSET -1.69225 -0.51767 -0.607171
                  }
                }
              }
            }
          }
        }
      }
      JOINT lCollar
      {
        OFFSET 2.68224 19.2634 -4.8768
        CHANNELS 3 Zrotation Xrotation Yrotation
        JOINT lShldr
        {
          OFFSET 8.77824 -1.95073 1.46304
          CHANNELS 3 Zrotation Xrotation Yrotation
          JOINT lForeArm
          {
            OFFSET 28.1742 -1.7115 0.48768
            CHANNELS 3 Zrotation Xrotation Yrotation
            JOINT lHand
            {
              OFFSET 22.5879 0.773209 7.07136
              CHANNELS 3 Zrotation Xrotation Yrotation
              JOINT lThumb1
              {
                OFFSET 1.2192 -0.487915 3.41376
                CHANNELS 3 Zrotation Xrotation Yrotation
                JOINT lThumb2
                {
                  OFFSET 3.37035 -0.52449 3.41376
                  CHANNELS 3 Zrotation Xrotation Yrotation
                  End Site
                  {
                    OFFSET 1.78271 -1.18214 1.43049
                  }
                }
              }
              JOINT lIndex1
              {
                OFFSET 7.75947 0.938293 5.60832
                CHANNELS 3 Zrotation Xrotation Yrotation
                JOINT lIndex2
                {
                  OFFSET 2.54057 -0.884171 1.56538
                  CHANNELS 3 Zrotation Xrotation Yrotation
                  End Site
                  {
                    OFFSET 1.62519 -0.234802 1.16502
                  }
                }
              }
              JOINT lMid1
              {
                OFFSET 8.24714 1.18213 3.41376
                CHANNELS 3 Zrotation Xrotation Yrotation
                JOINT lMid2
                {
                  OFFSET 3.10165 -0.590103 1.0647
                  CHANNELS 3 Zrotation Xrotation Yrotation
                  End Site
                  {
                    OFFSET 2.48547 -0.328903 0.83742
                  }
                }
              }
              JOINT lRing1
              {
                OFFSET 8.82822 0.546677 1.51678
                CHANNELS 3 Zrotation Xrotation Yrotation
                JOINT lRing2
                {
                  OFFSET 2.60934 -0.819778 -0.0198488
                  CHANNELS 3 Zrotation Xrotation Yrotation
                  End Site
                  {
                    OFFSET 2.33842 -0.294052 0.168128
                  }
                }
              }
              JOINT lPinky1
              {
                OFFSET 8.27202 -0.0477905 -0.4584
                CHANNELS 3 Zrotation Xrotation Yrotation
                JOINT lPinky2
                {
                  OFFSET 1.82734 -0.647385 -0.700984
                  CHANNELS 3 Zrotation Xrotation Yrotation
                  End Site
                  {
                    OFFSET 1.69225 -0.51767 -0.607171
                  }
                }
              }
            }
          }
        }
      }
    }
  }
  JOINT rButtock
  {
    OFFSET -8.77824 4.35084 1.2192
    CHANNELS 3 Zrotation Xrotation Yrotation
    JOINT rThigh
    {
      OFFSET 0 -1.70687 -2.19456
      CHANNELS 3 Zrotation Xrotation Yrotation
      JOINT rShin
      {
        OFFSET 0 -36.8199 0.73152
        CHANNELS 3 Zrotation Xrotation Yrotation
        JOINT rFoot
        {
          OFFSET 0.73152 -45.1104 -5.12064
          CHANNELS 3 Zrotation Xrotation Yrotation
          End Site
          {
            OFFSET -1.1221 -3.69964 12.103
          }
        }
      }
    }
  }
  JOINT lButtock
  {
    OFFSET 8.77824 4.35084 1.2192
    CHANNELS 3 Zrotation Xrotation Yrotation
    JOINT lThigh
    {
      OFFSET 0 -1.70687 -2.19456
      CHANNELS 3 Zrotation Xrotation Yrotation
      JOINT lShin
      {
        OFFSET 0 -36.8199 0.73152
        CHANNELS 3 Zrotation Xrotation Yrotation
        JOINT lFoot
        {
          OFFSET -0.73152 -45.1104 -5.12064
          CHANNELS 3 Zrotation Xrotation Yrotation
          End Site
          {
            OFFSET 1.1221 -3.69964 12.103
          }
        }
      }
    }
  }
}
MOTION
Frames:	4
Frame Time:	0.03333
-2.33958400785923 62.66181468963623 11.549779120832682 -6.581325251187812 5.766251883660334 2.6273944812381926 -2.4185208931168556 14.988245661851437 4.0407565615656456 2.5835621691264588 -9.88252557801058 1.1975048372231896 -4.84236634557856 15.516864737569987 -3.236140427100868 8.553667878754993 -25.249494984055467 -4.550155911846605 0.007981342849424353 -0.015733027258113638 0.037190299989440095 0.011317576763964849 0.01742754783240488 0.057223458268499054 0.04322453199730835 0.025342189615715827 0.012377476714826701 49.166037570447926 31.54524234208223 16.47091922121571 -24.377109072315587 -30.158864204731383 67.8003918905085 -4.727765589702678 -11.672060753763308 -5.352225026081202 -0.003966045391103107 -0.05770764130741627 0.0638065600092013 0.04753235365117655 -0.03995207097207888 0.0008300814275681122 -0.018528088742849627 0.06028282272770941 -0.03182636700526528 7.838833086826153 5.569461753954396 0.410158569270525 0.03661098789003194 -0.035151034954941714 0.03044492789509715 2.878285258699332 0.9809996866431272 -0.007597057997225189 -0.048562324833673315 -0.04973004705790749 0.051581055003407386 10.430156485283861 0.7059220353922088 0.05015715399455146 -0.013871687317472771 -0.018739877967972916 -0.02780367239871206 2.2169831416075243 -0.8111329887066159 -0.28018241724270954 -0.02239384241094462 0.03961306947366411 0.05860046175777065 -58.87397668308381 31.99820341236455 -27.020810630197186 23.522099161824222 -28.35812581119254 -64.1988946128633 4.811480230151762 -13.908966489962701 3.9826337861629524 0.002684744591491028 -0.04524321975291074 0.040854936602989944 0.03720107888172402 -0.09578347799079116 -0.055354841241545216 0.01674177416137312 -0.06587035102570958 0.09205947742840037 -7.850033743291327 5.556650880392391 -0.38972680542037236 0.033522888611539924 -0.006823012135298949 0.02281213813675501 -2.886427484520222 0.9223856712287223 -0.10181560224497023 0.07199254172946158 -0.06548753359696491 -0.019124956562858828 -10.47907515389314 0.7878116279507247 -0.014011652834605141 0.010042939400857499 0.007465049917280147 -0.01748875273067054 -2.347779343222564 -0.7255104309624235 0.267560227656526 -0.058732156342704955 -0.09430324793160245 -0.03763439568762315 -32.68640644294587 -36.42646776828311 -28.45342744068173 -5.522877729380793 63.48912184488309 6.6530226006790825 -4.885605711892971 -10.588883251405788 -10.815888003565746 -0.07017576477109108 0.024988233738278427 0.08565889648501085 39.32648754269507 -34.52487138636527 32.058998926166836 5.4178080756048415 63.89506047782445 -6.65538627301873 4.9765437042761675 -10.048369401247658 13.809883496994265
-2.366245910525322 62.55631446838379 11.506011616438627 -6.552736640643078 5.794775180521131 2.6081777440083616 -2.4288797287668262 14.953363885760181 4.027095329451973 2.5697291150664787 -9.869911072387213 1.1905399652604807 -4.832098863708738 15.506918274591158 -3.2489427629264105 8.548537552914668 -25.199832678600306 -4.579016022410847 0.007530497003350621 -0.012314624300228038 0.029557616952803734 0.017909136199850278 0.002428719219321331 0.04610156242219111 0.03802408999628411 0.017998028710659614 0.008188329597787473 49.0646639027866 31.471155280155102 16.449457059296236 -24.33000125761001 -30.095712275665445 67.65608365372447 -4.70824747037572 -11.581999586914812 -5.313149940726382 -0.0032994082559392847 -0.06260675457216658 0.06484453531963168 0.0373602809863235 -0.030392901063528693 0.004038776233593165 -0.021427930932343166 0.0584143391028878 -0.016373170729817216 7.821819939377297 5.557310847420943 0.41669655441010817 0.02454591228845399 -0.02513477598052958 0.023299162641088653 2.8692694089949153 0.9892149101107716 0.003511577677139417 -0.03858918142839689 -0.03673550544025245 0.04225693965184084 10.417744324014656 0.70976935288563 0.04814544984057114 -0.01698358553635405 -0.010443012395405706 -0.02171786712652492 2.2186198256873886 -0.8019406213008364 -0.26548256948837273 -0.016256490554865038 0.028900237925616454 0.04753256709458811 -58.804028715793706 31.987271694597947 -26.93225722760797 23.489488423631997 -28.32721237500906 -64.08918811441455 4.801615302556148 -13.91950547185203 3.996043581937803 0.0056234868427419045 -0.022812024744942615 0.024814770945743903 0.027613360916877293 -0.07745189058871162 -0.03692752446937972 0.018917456216286634 -0.0543033723054401 0.0709880236737937 -7.834759732759887 5.559814965525399 -0.3884532953052823 0.031079388435967865 0.006875946101366547 0.009955694406381164 -2.889269910432005 0.926468630248509 -0.11149440718570143 0.06774789932541601 -0.045572836411323356 -0.00862983729460533 -10.461129685622577 0.7765593181799517 -0.02008902709203555 0.009837233312963755 0.0008650594666379821 -0.01874283949530835 -2.3342171488518577 -0.7248166865139912 0.24018482946311487 -0.04195529075044958 -0.07533442522430189 -0.02463611881026576 -32.65713908235236 -36.393293539484354 -28.43892011888462 -5.512624761662958 63.40843682021772 6.632127344460721 -4.854159094067409 -10.56691650926138 -10.77402577414274 -0.05793265068384323 0.017646367349896518 0.07342389324740238 39.23685497021699 -34.440340965197194 31.97674295799237 5.4078219121514595 63.77085348776777 -6.6543813814370925 4.974314074398982 -10.062209072053397 13.816354247459206
-2.376868948340416 62.52540946006775 11.459722649306059 -6.554863817682714 5.789489467877187 2.613734102898167 -2.4281433489969344 14.945563809728027 4.033104188374292 2.561784324401285 -9.867912388281336 1.1965507451735036 -4.839989439747395 15.497021330483808 -3.2405100406223837 8.548465835928383 -25.190191866586833 -4.5722024818269364 0.016908826981454145 -0.018149340079137877 0.031116020661477346 0.02166776795576714 0.005223120363502798 0.04455399096665431 0.032759188084967875 0.015033940054285645 0.006960069485948774 49.061822544091875 31.457392448977526 16.442041181404896 -24.320548275798714 -30.081344972746322 67.63914478458284 -4.698353514476133 -11.579836978268856 -5.314591964414901 0.003623308632985983 -0.06244427077511433 0.06306953990907462 0.0538942479762203 -0.04303467408272315 0.003798438952173341 -0.024368113926622092 0.059635448860439144 -0.01832201579909226 7.82457079806552 5.555833819012928 0.41451174764935034 0.019092032916625253 -0.026716925268739564 0.028669932484540084 2.8743779636072615 0.983313413224469 -0.0011886863693136155 -0.03241362320164754 -0.03937814831881269 0.03914605528916448 10.398281699974705 0.7201305364131279 0.043838161795231846 -0.022970886674104914 -0.006962177239637959 -0.019382476038909465 2.223708316619048 -0.8002988145790947 -0.26084657858922655 -0.007711070129532833 0.02200654934066374 0.040627886173939906 -58.77741146859817 31.979235977039426 -26.9207483588565 23.47515868675331 -28.309723675639244 -64.06121848976335 4.806473274603319 -13.912798226087078 4.001366433735359 0.011596007024242039 -0.027642889478845696 0.019659205422000763 0.016824650236019027 -0.08282044595676809 -0.041980263629602436 0.009894549539075004 -0.05536557344308286 0.06849607184379686 -7.829039449330001 5.562270418532019 -0.3983475713699862 0.02674531324247743 -0.009319419596512163 0.009080362975561718 -2.8863739102239196 0.9296149995783577 -0.10279199913116471 0.06836539111506747 -0.046231629501112245 -0.007662084866579147 -10.460890629001627 0.776979588257319 -0.02067823762965493 0.014419596554954731 0.00038086308750754695 -0.016088937476788162 -2.3395965631534774 -0.7340964589968056 0.2416509722571404 -0.042276736528263296 -0.07825187649524937 -0.031214978363163195 -32.63862243951246 -36.3824642745553 -28.424064457439844 -5.517663306836312 63.382092780588984 6.627593806399125 -4.8529902779456915 -10.567840292346625 -10.76464109422314 -0.05431436130608228 0.022902464720485783 0.07570037395342648 39.22594032792331 -34.41780817112532 31.964595466553504 5.401117227707446 63.7462238256207 -6.644393083549595 4.9785530605526205 -10.062987713618778 13.814024299178586
-2.374551072716713 62.56455183029175 11.395601276308298 -6.578313991537483 5.761753777205057 2.6358423580244406 -2.4208337659245514 14.962041641100681 4.048504984292202 2.5622801534463453 -9.874805756701173 1.2091481753239457 -4.856430985740085 15.493148613224411 -3.2204696252673317 8.551988505992817 -25.215740189177264 -4.541688184823081 0.0284494988012485 -0.027267322455987553 0.03820949227965293 0.022329389170759235 0.019318976623969503 0.05135312412028466 0.030806714477696263 0.01726047500200402 0.009985843288264424 49.135380266358325 31.494357432765636 16.44745581386942 -24.344231956745734 -30.111018729595443 67.72549203607014 -4.701984613793641 -11.644699015948236 -5.344865497250513 0.012351329896910245 -0.05804493525853854 0.06139358224148274 0.0803733972844788 -0.06576698438355363 0.0014834317103621444 -0.026828689575119188 0.06256410591049368 -0.0332311448184665 7.839119100997647 5.563209569542896 0.4062830772467775 0.021687638203362322 -0.035969163551462305 0.04129959259012835 2.888644521236126 0.970881401717988 -0.013728993726736362 -0.03315726004753268 -0.051930541909415186 0.04252715901087947 10.385560472645556 0.7291816042804525 0.04115197646071277 -0.026555882214715356 -0.008743575952541908 -0.020705184860364746 2.2290347969546 -0.8054256186031297 -0.26640058960150476 -0.0007429965156504495 0.023035506666955582 0.04035627943272612 -58.79680920584101 31.976418524006796 -26.974047740044693 23.48142197022221 -28.31008226057067 -64.10727445533675 4.820270256726745 -13.895248055014731 3.9973430254273983 0.017646434050962632 -0.05041335278949305 0.02603310593894493 0.011028487673322738 -0.10274106619708051 -0.0616049445797829 -0.002368774971205213 -0.06553839315987639 0.08090684573082738 -7.833170006230566 5.562975635563823 -0.4104521606831298 0.02407534960723713 -0.0387127651636918 0.017963290795427755 -2.8814301339252997 0.9295867183263256 -0.08544310519592076 0.07181388959398344 -0.06188813062607398 -0.014785331840667758 -10.473311328007295 0.7867324580618626 -0.01679740952061831 0.019086483387924617 0.005171947305580593 -0.013257770704964984 -2.355311761216619 -0.7457153578269378 0.26457137956441074 -0.05582196214775062 -0.09602381527221099 -0.04806756300567051 -32.63627968462714 -36.39294861493127 -28.415612098341953 -5.530416123790372 63.40901738629717 6.638159255271488 -4.874791814889549 -10.58487393036299 -10.784873822092012 -0.06026043784992176 0.03378044810823023 0.08795768202754327 39.2803564450408 -34.45429504167153 32.012147243555134 5.401343477723702 63.80981288679352 -6.633120283211312 4.984371527951825 -10.052103807176364 13.805195425902697
